<?xml version="1.0" encoding="UTF-8"?>
<!DOCTYPE svg PUBLIC "-//W3C//DTD SVG 1.1//EN" "http://www.w3.org/Graphics/SVG/1.1/DTD/svg11.dtd">
<!-- Creator: CorelDRAW 2017 -->
<svg xmlns="http://www.w3.org/2000/svg" xml:space="preserve" width="54.824mm" height="18.0679mm" version="1.1" style="shape-rendering:geometricPrecision; text-rendering:geometricPrecision; image-rendering:optimizeQuality; fill-rule:evenodd; clip-rule:evenodd"
viewBox="0 0 4352 1434.25"
 xmlns:xlink="http://www.w3.org/1999/xlink">
 <defs>
  <style type="text/css">
   <![CDATA[
    .str0 {stroke:#FEFEFE;stroke-width:47.6;stroke-miterlimit:22.9256}
    .fil2 {fill:none}
    .fil1 {fill:#FEFEFE}
    .fil0 {fill:#FEFEFE;fill-rule:nonzero}
   ]]>
  </style>
 </defs>
 <g id="Camada_x0020_1">
  <metadata id="CorelCorpID_0Corel-Layer"/>
  <g id="_2645501404944">
   <path class="fil0" d="M694.86 190.59c-47.04,98.99 -93.6,197 -139.66,294.35 -46.06,97.35 -92.61,195.52 -139.66,294.5 -0.98,2.78 -2.61,5.39 -4.9,8 -2.29,2.45 -5.56,3.76 -9.8,3.76 -5.88,0 -10.62,-3.92 -14.21,-11.76l-279.32 -588.86 -50.96 575.14c0,12.42 -6.05,18.61 -18.13,18.61l-20.58 0c-5.88,0 -10.3,-1.95 -13.23,-5.72 -2.94,-3.75 -4.41,-8.33 -4.41,-13.88l64.68 -710.54c0.65,-4.58 2.13,-8.83 4.41,-12.74 2.29,-3.92 6.37,-5.88 12.25,-5.88 5.88,0 10.29,3.1 13.23,9.31l306.27 638.02c0,0.33 0.16,0.49 0.33,0.65 0.17,0.17 0.17,0.49 0.17,0.82l0 -1.47c3.26,-7.18 6.53,-14.53 9.8,-21.89 3.27,-7.35 6.7,-14.7 10.3,-21.89l286.18 -594.24c2.94,-6.21 7.51,-9.31 13.72,-9.31 5.56,0 9.48,1.96 11.76,5.88 2.29,3.91 3.75,8.16 4.41,12.74l66.16 711.53c0,11.76 -5.88,17.64 -17.64,17.64l-20.58 0c-6.53,0 -11.27,-1.79 -14.38,-5.22 -3.1,-3.44 -4.73,-8.01 -4.73,-13.89l-51.45 -573.66z"/>
   <path class="fil0" d="M1420.78 770.14c-88.99,-213.57 -127.82,-309.86 -248.12,-599.96 -2.78,-6.69 -5.72,-13.22 -8.66,-19.92 -0.65,0 -0.98,0.33 -0.98,0.98 -119.06,286.57 -168.99,407.1 -255.8,616.95 -4.57,10.13 -10.95,15.19 -19.11,15.19 -13.11,0 -44.45,-3.67 -34.3,-24.01l286.18 -684.58c3.21,-7.18 15.15,-33.32 24.01,-33.32 6.53,0 11.44,3.59 14.7,10.78l295 708.1c1.38,2.07 1.96,6.8 1.96,9.31 0,10.54 -29.19,13.72 -36.75,13.72 -8.49,0 -14.54,-4.41 -18.13,-13.23z"/>
   <path class="fil0" d="M1577.77 159.24l0 606.5c0,11.76 -6.04,17.64 -18.3,17.64l-17.31 0c-12.25,0 -18.29,-5.88 -18.29,-17.64l0 -710.55c0,-3.6 0.81,-7.35 2.29,-11.11 1.47,-3.76 4.9,-5.56 10.45,-5.56 4.57,0 8.65,1.96 12.25,5.88 87.55,106.82 174.77,213.16 261.51,319.01 86.72,105.69 173.79,212.02 261.34,318.85l0 -608.62c0,-11.76 6.05,-17.64 18.3,-17.64l17.81 0c11.92,0 17.81,5.88 17.81,17.64l0 713.65c-0.33,3.43 -1.31,6.86 -2.95,10.29 -1.63,3.6 -5.22,5.39 -10.78,5.39 -5.55,0 -9.96,-2.29 -13.22,-6.86l-520.9 -636.88z"/>
   <path class="fil0" d="M2666.31 55.19c5.55,0 10.13,1.47 13.72,4.25 3.6,2.78 5.39,7.35 5.39,13.56l0 17.31c0,5.56 -1.63,10.13 -4.9,13.56 -3.26,3.43 -8,5.22 -14.21,5.22l-206.8 0 0 656.65c0,11.76 -6.04,17.64 -18.3,17.64l-17.8 0c-11.93,0 -17.81,-5.88 -17.81,-17.64l0 -656.65 -213.65 0c-12.09,0 -18.13,-6.2 -18.13,-18.78l0 -17.31c0,-11.92 6.04,-17.81 18.13,-17.81l474.35 0z"/>
   <path class="fil0" d="M2722.76 1369.2c1.11,-1.4 2.57,-2.92 4.38,-4.52 1.8,-1.6 3.75,-2.36 5.83,-2.36 0.7,0 2.02,0.35 3.89,1.04 1.88,0.7 3.2,1.6 4.03,2.71 5.14,7.09 10.49,13.41 16.06,18.97 5.56,5.56 11.68,10.22 18.28,13.97 6.6,3.75 13.83,6.6 21.69,8.55 7.85,1.94 16.68,2.92 26.55,2.92 10.71,0 20.78,-1.25 30.24,-3.75 9.45,-2.5 17.73,-6.4 24.81,-11.61 7.09,-5.21 12.72,-11.88 16.89,-20.01 4.17,-8.14 6.26,-17.8 6.26,-28.92 0,-8.61 -1.74,-16.05 -5.22,-22.38 -3.48,-6.33 -8.2,-11.95 -14.18,-16.96 -5.91,-4.94 -12.93,-9.25 -20.92,-13 -7.99,-3.75 -16.4,-7.44 -25.3,-11.05 -13.9,-5.56 -26.83,-10.91 -38.85,-16.06 -11.95,-5.14 -22.46,-11.11 -31.35,-17.86 -8.83,-6.74 -15.85,-14.73 -20.92,-23.91 -5.07,-9.18 -7.57,-20.5 -7.57,-33.98 0,-12.38 2.15,-23.5 6.46,-33.44 4.31,-9.87 10.29,-18.21 17.86,-25.02 7.58,-6.81 16.54,-12.03 26.97,-15.64 10.42,-3.61 21.68,-5.42 33.78,-5.42 8.07,0 15.99,0.9 23.7,2.64 7.72,1.74 15.08,4.31 22.1,7.64 7.02,3.41 13.55,7.5 19.6,12.37 6.05,4.94 11.47,10.49 16.34,16.75 0.69,0.98 1.18,1.74 1.46,2.37 0.28,0.63 0.41,1.53 0.41,2.64 0,0.41 -0.41,1.04 -1.25,1.87 -0.84,0.83 -1.81,1.74 -2.92,2.79 -1.11,1.04 -2.29,2.08 -3.61,3.13 -1.33,1.04 -2.44,1.94 -3.27,2.64 -1.53,1.11 -2.92,1.46 -4.17,1.11 -1.25,-0.34 -2.37,-0.97 -3.34,-1.94 -8.41,-9.31 -17.79,-16.68 -28.08,-22.1 -10.29,-5.42 -22.59,-8.14 -36.84,-8.14 -9.31,0 -17.79,1.4 -25.43,4.18 -7.64,2.78 -14.18,6.67 -19.67,11.61 -5.49,4.94 -9.73,10.77 -12.72,17.58 -2.99,6.81 -4.45,14.32 -4.45,22.59 0,9.73 2.16,17.93 6.53,24.6 4.38,6.68 10.57,12.58 18.49,17.73 7.86,5.14 17.31,9.94 28.22,14.39 10.84,4.45 22.8,9.31 35.66,14.59 11.4,4.73 21.75,9.73 31.14,14.95 9.38,5.22 17.37,11.12 23.97,17.65 6.6,6.53 11.68,13.97 15.3,22.31 3.61,8.34 5.42,18 5.42,28.99 0,14.31 -2.64,26.97 -7.99,37.88 -5.36,10.91 -12.58,20.08 -21.69,27.52 -9.11,7.44 -19.81,13.07 -32.11,16.82 -12.3,3.75 -25.44,5.63 -39.34,5.63 -20.99,0 -40.04,-4.31 -57.2,-12.93 -17.17,-8.61 -32.11,-22.66 -44.76,-42.12 -0.7,-0.97 -1.18,-1.87 -1.53,-2.71 -0.34,-0.83 -0.56,-1.81 -0.56,-2.92 0,-1.8 0.98,-3.26 2.92,-4.37z"/>
   <path id="1" class="fil0" d="M3184.14 1118.14c2.37,0 4.31,0.63 5.84,1.81 1.52,1.18 2.29,3.13 2.29,5.77l0 7.37c0,2.37 -0.7,4.31 -2.09,5.77 -1.39,1.46 -3.41,2.22 -6.05,2.22l-87.99 0 0 279.41c0,5.01 -2.57,7.51 -7.78,7.51l-7.58 0c-5.07,0 -7.57,-2.5 -7.57,-7.51l0 -279.41 -90.92 0c-5.14,0 -7.72,-2.64 -7.72,-7.99l0 -7.37c0,-5.07 2.57,-7.58 7.72,-7.58l201.84 0z"/>
   <path id="2" class="fil0" d="M3272.69 1304.34c0,14.74 2.64,28.57 7.86,41.5 5.21,12.92 12.44,24.19 21.69,33.78 9.24,9.59 20.23,17.1 32.94,22.59 12.72,5.49 26.55,8.27 41.56,8.27 15.29,0 29.33,-2.79 42.12,-8.27 12.79,-5.49 23.77,-13 32.94,-22.59 9.18,-9.59 16.34,-20.85 21.41,-33.78 5.07,-12.93 7.57,-26.76 7.57,-41.5l0 -178.7c0,-2.37 0.77,-4.24 2.23,-5.56 1.45,-1.33 3.41,-1.95 5.76,-1.95l6.95 0c2.37,0 4.37,0.63 5.98,1.95 1.6,1.32 2.43,3.19 2.43,5.56l0 181.34c-0.13,18.35 -3.54,35.24 -10.22,50.6 -6.67,15.36 -15.77,28.64 -27.24,39.83 -11.47,11.19 -24.95,19.95 -40.38,26.2 -15.43,6.26 -31.9,9.38 -49.42,9.38 -11.74,0 -23,-1.52 -33.85,-4.52 -10.84,-2.98 -20.99,-7.22 -30.37,-12.79 -9.38,-5.56 -17.93,-12.16 -25.65,-19.81 -7.72,-7.64 -14.32,-16.27 -19.81,-25.72 -5.49,-9.45 -9.8,-19.53 -12.86,-30.3 -3.06,-10.78 -4.59,-22.04 -4.59,-33.71l0 -180.5c0,-2.09 0.63,-3.89 1.87,-5.35 1.25,-1.46 3.06,-2.16 5.42,-2.16l7.92 0c2.09,0 3.9,0.63 5.42,1.95 1.53,1.32 2.29,3.19 2.29,5.56l0 178.7z"/>
   <path id="3" class="fil0" d="M3591.86 1126.07c0,-2.37 0.63,-4.24 1.87,-5.64 1.25,-1.39 2.92,-2.15 5.01,-2.29l100.23 0c14.31,0.14 28.01,2.09 41.07,5.84 13.14,3.75 25.44,9.03 36.84,15.78 11.47,6.74 21.82,14.8 31.2,24.19 9.38,9.38 17.31,19.81 23.91,31.28 6.6,11.46 11.75,23.84 15.43,37.05 3.68,13.2 5.49,26.97 5.49,41.29 0,14.38 -1.81,28.08 -5.49,41.21 -3.68,13.14 -8.9,25.51 -15.64,36.98 -6.74,11.47 -14.8,21.89 -24.33,31.28 -9.52,9.38 -20.01,17.38 -31.48,23.98 -11.53,6.6 -23.91,11.74 -37.18,15.43 -13.21,3.68 -26.97,5.56 -41.29,5.56l-97.73 0c-1.81,0 -3.61,-0.48 -5.35,-1.46 -1.74,-0.97 -2.57,-2.64 -2.57,-5l0 -295.46zm105.37 279.41c12.44,0 24.47,-1.6 36,-4.79 11.47,-3.2 22.17,-7.72 32.05,-13.55 9.87,-5.84 18.84,-12.86 26.97,-21 8.07,-8.13 15.01,-17.16 20.71,-27.04 5.63,-9.87 10.08,-20.5 13.21,-31.83 3.13,-11.33 4.65,-23 4.65,-35.17 0,-18.91 -3.54,-36.36 -10.63,-52.48 -7.09,-16.06 -16.69,-29.89 -28.78,-41.64 -12.16,-11.68 -26.28,-20.78 -42.4,-27.39 -16.06,-6.6 -33.16,-9.94 -51.15,-9.94l-82.64 0 0 264.82 82.02 0z"/>
   <path id="4" class="fil0" d="M3936.89 1125.65c0,-2.37 0.7,-4.24 2.02,-5.56 1.33,-1.33 3.2,-1.95 5.7,-1.95l7.51 0c2.37,0 4.24,0.63 5.63,1.95 1.39,1.32 2.09,3.19 2.09,5.56l0 294.84c0,5.01 -2.57,7.51 -7.72,7.51l-7.51 0c-5.14,0 -7.72,-2.5 -7.72,-7.51l0 -294.84z"/>
   <path id="5" class="fil0" d="M4034.2 1273.49c0,-14.6 1.88,-28.7 5.64,-42.26 3.75,-13.62 9.11,-26.27 15.98,-38.02 6.88,-11.75 15.15,-22.45 24.81,-32.18 9.66,-9.66 20.37,-17.93 32.11,-24.81 11.75,-6.88 24.47,-12.23 38.02,-16.06 13.55,-3.82 27.59,-5.76 42.25,-5.76 14.6,0 28.64,1.94 42.19,5.76 13.62,3.83 26.28,9.18 38.02,16.06 11.74,6.88 22.45,15.15 32.11,24.81 9.66,9.73 17.93,20.43 24.81,32.18 6.88,11.75 12.23,24.39 16.05,38.02 3.83,13.56 5.77,27.66 5.77,42.26 0,14.6 -1.94,28.7 -5.77,42.19 -3.82,13.48 -9.17,26.13 -16.05,37.88 -6.88,11.74 -15.15,22.45 -24.81,32.17 -9.66,9.67 -20.37,17.93 -32.11,24.81 -11.75,6.88 -24.4,12.23 -38.02,15.99 -13.55,3.75 -27.59,5.63 -42.19,5.63 -14.66,0 -28.7,-1.87 -42.25,-5.63 -13.55,-3.75 -26.28,-9.11 -38.02,-15.99 -11.74,-6.88 -22.45,-15.15 -32.11,-24.81 -9.66,-9.72 -17.93,-20.43 -24.81,-32.17 -6.87,-11.75 -12.23,-24.4 -15.98,-37.88 -3.75,-13.49 -5.64,-27.59 -5.64,-42.19zm23.35 0c0,18.62 3.55,36.14 10.64,52.61 7.09,16.47 16.75,30.86 29.05,43.1 12.3,12.23 26.69,21.89 43.16,28.98 16.41,7.09 33.99,10.63 52.61,10.63 12.3,0 24.33,-1.6 35.94,-4.79 11.61,-3.2 22.39,-7.78 32.39,-13.69 10.01,-5.91 19.11,-12.99 27.39,-21.27 8.27,-8.27 15.36,-17.38 21.27,-27.39 5.91,-10.01 10.49,-20.78 13.76,-32.24 3.27,-11.47 4.87,-23.43 4.87,-35.94 0,-18.63 -3.54,-36.21 -10.7,-52.69 -7.16,-16.47 -16.89,-30.86 -29.2,-43.17 -12.3,-12.3 -26.69,-22.03 -43.16,-29.19 -16.4,-7.16 -33.99,-10.7 -52.55,-10.7 -12.51,0 -24.53,1.6 -36,4.87 -11.4,3.26 -22.17,7.85 -32.25,13.76 -10.07,5.91 -19.25,13 -27.52,21.27 -8.27,8.27 -15.29,17.45 -21.13,27.46 -5.83,10.01 -10.42,20.78 -13.69,32.39 -3.26,11.61 -4.87,23.63 -4.87,36.01z"/>
   <path class="fil1" d="M4235.02 500.53c-18.06,85.64 -58.48,147.57 -115.09,185.97 -59,40.02 -135.38,54.28 -222.16,43.06 -75.98,-9.82 -135.3,-40.91 -196,-72.71 -62.49,-32.74 -126.54,-66.3 -211.41,-77.31 -104.17,-13.51 -183.7,30.44 -260.7,73.01 -66.58,36.81 -131.38,72.63 -209.54,71.2 -71.56,-1.3 -141.78,-31.23 -194.11,-83.85 -48.04,-48.31 -81.04,-115.75 -86.16,-197.65 -3.24,-51.88 3.96,-101.76 19.96,-146.37 18.56,-51.75 48.99,-96.43 88.73,-129.07 39.9,-32.75 89.14,-53.38 145.18,-56.88 39.26,-2.45 81.88,3.54 126.93,19.68 41.53,14.07 81.33,31.22 120.58,48.14 123.96,53.42 242.6,104.55 383.97,44.07 28.12,-12.03 55.91,-26.62 83.92,-41.33 101.51,-53.33 206.33,-108.37 351.51,-56.9 68.4,24.26 122.45,75.13 153.81,143.24 29.89,64.93 39.17,145.57 20.58,233.71zm-399.31 -483.96c-63.19,16.42 -113.19,50.57 -161.17,83.34 -59.73,40.79 -116.46,79.54 -192.82,81.46 -54.76,1.38 -138.88,-29.53 -217.07,-58.26 -41.68,-15.32 -81.68,-30.02 -114.27,-38.72 -59.25,-15.82 -116.62,-25.08 -173.27,-18.65 -56.39,6.41 -112.36,28.45 -169.25,75.13 -78.51,63.85 -119.31,162.66 -122.27,263.12 -1.29,43.93 4.66,88.22 17.87,130.05 13.19,41.75 33.61,81.02 61.23,114.99 55.65,68.43 140.82,115.68 255.6,119.06 109.52,3.22 176.81,-27.35 242.68,-57.29 45.89,-20.85 91.12,-41.41 149.56,-50.53 80.42,-12.57 130.42,18.2 200.83,61.54 35.25,21.69 75.75,46.61 127.67,70.6 94.27,43.55 189.12,54.38 274.58,40.41 92.73,-15.16 174.48,-59.54 232.5,-123.03 71.27,-77.97 104.3,-180.27 103.86,-282.84 -0.33,-79.21 -20.65,-158.6 -58.71,-227.06 -37.97,-68.28 -93.64,-125.7 -164.79,-161.22 -79.24,-39.56 -177.85,-52 -292.78,-22.12z"/>
   <path class="fil2 str0" d="M1424.08 713.99c-51.14,-91.47 -148.92,-153.32 -261.16,-153.32 -112.25,0 -210.03,61.85 -261.16,153.32"/>
  </g>
 </g>
</svg>
